<?xml version="1.0" encoding="UTF-8" standalone="no"?>
<!--
  GaimControl iOS app icon — 1024x1024 master.
  Full bleed (no rounded corners — iOS rounds the icon itself). Mark sized for ~80%
  visual weight in Spotlight + notification contexts. Export as 1024.png for App Store
  Connect; iOS scales down to all derivative sizes.
-->
<svg xmlns="http://www.w3.org/2000/svg" viewBox="0 0 1024 1024" role="img" aria-label="GaimControl">
  <rect width="1024" height="1024" fill="#20273C"/>
  <!-- Mark scaled and centered: native viewBox -25..25 mapped to 1024 with comfortable padding -->
  <g transform="translate(512 512) scale(15.5)">
    <path fill="#FFFFFF" fill-rule="evenodd"
      d="m 16.695,-10.298671 c -5.42,-5.76 -13.13,-6.66 -19.42,-3.89 -3.61,-1.16 -7.67,-0.7 -10.97,1.23 -8.27,4.92 -9.4,16.26 -3,23.26 5.41,5.76 13.12,6.66 19.42,3.88 3.61,1.16 7.67,0.7 10.97,-1.23 8.27,-4.92 9.4,-16.26 3,-23.26 z m -0.74,15.76 c -1.16,4.58 -5.34,8.06 -10.03,8.63 -0.98,0.12 -1.99,0.11 -3,0 4.31,-1.96 7.93,-5.65 9.66,-10.68 1.48,-3.48 -0.86,-7.62 -4.63,-8.08 -3.22,-0.44 -6.18,1.81 -6.62,5.02 -0.17,1.48 -0.74,2.88 -1.71,4.05 -2.9,3.46 -8.21,3.78 -11.79,1.12 -3.37,-2.43 -4.84,-6.97 -3.77,-11 1.16,-4.58 5.34,-8.06 10.03,-8.63 0.98,-0.12 1.99,-0.11 3,0 -4.31,1.96 -7.93,5.65 -9.66,10.68 -1.48,3.48 0.86,7.62 4.63,8.08 3.22,0.44 6.18,-1.81 6.62,-5.02 0.17,-1.48 0.74,-2.88 1.71,-4.05 2.9,-3.46 8.2,-3.78 11.79,-1.12 3.37,2.43 4.84,6.97 3.77,11 z"/>
  </g>
</svg>
